<svg xmlns="http://www.w3.org/2000/svg" viewBox="0 0 1363.53 833.82"><defs><style>.cls-1{fill:#fff;}.cls-2,.cls-5{fill:none;}.cls-2{stroke:#fd768b;stroke-width:5px;}.cls-3{font-size:32px;font-family:NexaBold, Nexa Bold;}.cls-3,.cls-6{fill:#fd768b;}.cls-4,.cls-5,.cls-6{font-size:299.14px;font-family:Lobster-Regular, Lobster;}.cls-5{stroke:#fff;stroke-width:10.58px;}</style></defs><title>familibox-logo</title><g id="Capa_3" data-name="Capa 3"><circle class="cls-1" cx="722.46" cy="416.91" r="416.91"/><circle class="cls-2" cx="722.46" cy="416.91" r="375"/><text class="cls-3" transform="translate(478.93 204.57) rotate(-47.13)">E</text><text class="cls-3" transform="matrix(0.74, -0.67, 0.67, 0.74, 496.71, 185.7)">X</text><text class="cls-3" transform="matrix(0.79, -0.61, 0.61, 0.79, 517.96, 166.71)">P</text><text class="cls-3" transform="translate(540.05 150.19) rotate(-32.65)">E</text><text class="cls-3" transform="translate(562.01 136.37) rotate(-27.9)">R</text><text class="cls-3" transform="translate(586.62 123.8) rotate(-24.18)">I</text><text class="cls-3" transform="translate(599.64 117.97) rotate(-20.58)">E</text><text class="cls-3" transform="translate(624.59 108.84) rotate(-15.58)">N</text><text class="cls-3" transform="translate(652.37 101.4) rotate(-10.59)">C</text><text class="cls-3" transform="matrix(0.99, -0.12, 0.12, 0.99, 680.15, 96.67)">I</text><text class="cls-3" transform="translate(694.27 94.94) rotate(-2.84)">A</text><text class="cls-3" transform="translate(724.17 93.78) rotate(2.13)">S</text><text class="cls-3" transform="translate(751.33 95.2) rotate(5.62)"> </text><text class="cls-3" transform="translate(763.84 96.41) rotate(9.05)">E</text><text class="cls-3" transform="matrix(0.97, 0.24, -0.24, 0.97, 790.05, 100.81)">N</text><text class="cls-3" transform="translate(817.94 108.26) rotate(17.74)"> </text><text class="cls-3" transform="translate(829.9 112.08) rotate(21.1)">F</text><text class="cls-3" transform="translate(853.13 121.2) rotate(25.99)">A</text><text class="cls-3" transform="translate(879.87 134.46) rotate(31.63)">M</text><text class="cls-3" transform="matrix(0.81, 0.59, -0.59, 0.81, 908.25, 152.63)">I</text><text class="cls-3" transform="translate(919.8 161.01) rotate(39.32)">L</text><text class="cls-3" transform="matrix(0.73, 0.68, -0.68, 0.73, 938.77, 176.98)">I</text><text class="cls-3" transform="matrix(0.69, 0.73, -0.73, 0.69, 949.27, 186.61)">A</text><text class="cls-3" transform="matrix(0.64, 0.77, -0.77, 0.64, 969.51, 208.77)"> </text><text class="cls-3" transform="translate(977.47 218.59) rotate(52.65)"> </text><text class="cls-3" transform="translate(985.05 228.72) rotate(54.88)"> </text><text class="cls-3" transform="translate(992.22 239.12) rotate(57.12)"> </text><text class="cls-3" transform="translate(999 249.82) rotate(59.36)"> </text><text class="cls-3" transform="translate(1005.34 260.77) rotate(61.61)"> </text><text class="cls-3" transform="matrix(0.44, 0.9, -0.9, 0.44, 1011.25, 271.95)"> </text><text class="cls-3" transform="translate(1016.71 283.37) rotate(66.12)"> </text><text class="cls-3" transform="translate(1021.73 295) rotate(68.38)"> </text><text class="cls-3" transform="translate(1026.27 306.8) rotate(70.64)"> </text><text class="cls-3" transform="translate(1030.35 318.77) rotate(72.9)"> </text><text class="cls-3" transform="translate(1033.95 330.91) rotate(75.16)"> </text><text class="cls-3" transform="matrix(0.22, 0.98, -0.98, 0.22, 1037.07, 343.15)"> </text><text class="cls-3" transform="matrix(0.18, 0.98, -0.98, 0.18, 1039.71, 355.52)"> </text><text class="cls-3" transform="translate(1041.85 367.99) rotate(81.93)"> </text><text class="cls-3" transform="matrix(0.1, 0.99, -0.99, 0.1, 1043.51, 380.53)"> </text><text class="cls-3" transform="matrix(0.06, 1, -1, 0.06, 1044.68, 393.15)"> </text><text class="cls-3" transform="translate(1045.35 405.78) rotate(88.62)"> </text><text class="cls-3" transform="translate(1045.55 418.43) rotate(90.93)"> </text><text class="cls-3" transform="translate(1045.24 431.08) rotate(93.03)"> </text><text class="cls-3" transform="translate(1044.45 443.71) rotate(95.26)"> </text><text class="cls-3" transform="translate(1043.17 456.29) rotate(97.49)"> </text><text class="cls-3" transform="translate(1041.4 468.84) rotate(99.75)"> </text><text class="cls-3" transform="translate(1039.14 481.27) rotate(102)"> </text><text class="cls-3" transform="translate(1036.39 493.62) rotate(104.26)"> </text><text class="cls-3" transform="translate(1033.16 505.85) rotate(106.52)"> </text><text class="cls-3" transform="matrix(-0.32, 0.95, -0.95, -0.32, 1029.45, 517.94)"> </text><text class="cls-3" transform="matrix(-0.36, 0.93, -0.93, -0.36, 1025.25, 529.89)"> </text><text class="cls-3" transform="matrix(-0.4, 0.92, -0.92, -0.4, 1020.6, 541.65)"> </text><text class="cls-3" transform="translate(1015.48 553.23) rotate(115.56)"> </text><text class="cls-3" transform="translate(1009.92 564.57) rotate(117.81)"> </text><text class="cls-3" transform="matrix(-0.5, 0.87, -0.87, -0.5, 1003.91, 575.71)"> </text><text class="cls-3" transform="translate(997.46 586.61) rotate(122.3)"> </text><text class="cls-3" transform="translate(990.6 597.24) rotate(124.54)"> </text><text class="cls-3" transform="matrix(-0.6, 0.8, -0.8, -0.6, 983.33, 607.59)"> </text><text class="cls-3" transform="translate(975.66 617.64) rotate(129.01)"> </text><text class="cls-3" transform="translate(967.59 627.41) rotate(131.25)"> </text><text class="cls-3" transform="matrix(-0.69, 0.73, -0.73, -0.69, 959.16, 636.84)"> </text><text class="cls-3" transform="matrix(-0.72, 0.7, -0.7, -0.72, 950.37, 645.94)"> </text><text class="cls-3" transform="matrix(-0.74, 0.67, -0.67, -0.74, 941.22, 654.69)"> </text><text class="cls-3" transform="translate(931.77 663.06) rotate(140.17)"> </text><text class="cls-3" transform="translate(921.96 671.09) rotate(142.41)"> </text><text class="cls-3" transform="translate(911.86 678.71) rotate(144.64)"> </text><text class="cls-3" transform="translate(901.49 685.92) rotate(146.88)"> </text><text class="cls-3" transform="matrix(-0.86, 0.51, -0.51, -0.86, 890.82, 692.73)"> </text><text class="cls-3" transform="matrix(-0.88, 0.48, -0.48, -0.88, 879.9, 699.12)"> </text><text class="cls-3" transform="translate(868.72 705.09) rotate(153.62)"> </text><text class="cls-3" transform="translate(857.33 710.6) rotate(155.88)"> </text><text class="cls-3" transform="translate(845.75 715.65) rotate(158.13)"> </text><text class="cls-3" transform="matrix(-0.94, 0.34, -0.34, -0.94, 833.97, 720.25)"> </text><text class="cls-3" transform="matrix(-0.95, 0.3, -0.3, -0.95, 822, 724.38)"> </text><text class="cls-3" transform="translate(809.89 728.04) rotate(164.92)"> </text><text class="cls-3" transform="translate(797.65 731.21) rotate(167.18)"> </text><text class="cls-3" transform="translate(785.29 733.9) rotate(169.43)"> </text><text class="cls-3" transform="translate(772.83 736.1) rotate(171.68)"> </text><text class="cls-3" transform="matrix(-0.99, 0.11, -0.11, -0.99, 760.28, 737.81)"> </text><text class="cls-3" transform="translate(747.7 739.03) rotate(176.16)"> </text><text class="cls-3" transform="matrix(-1, 0.03, -0.03, -1, 735.05, 739.75)"> </text><text class="cls-3" transform="translate(722.44 740.01) rotate(-179.07)"> </text><text class="cls-3" transform="translate(709.76 739.75) rotate(-177.21)"> </text><text class="cls-3" transform="matrix(-1, -0.09, 0.09, -1, 697.13, 739.01)"> </text><text class="cls-3" transform="translate(464.44 611.65) rotate(51.06)">K</text><text class="cls-3" transform="translate(482.57 633.35) rotate(47.2)">I</text><text class="cls-3" transform="matrix(0.73, 0.69, -0.69, 0.73, 493.88, 645.43)">T</text><text class="cls-3" transform="matrix(0.78, 0.62, -0.62, 0.78, 513.93, 663.89)">S</text><text class="cls-3" transform="translate(536.52 681.15) rotate(34.61)"> </text><text class="cls-3" transform="translate(547.85 688.98) rotate(30.82)">P</text><text class="cls-3" transform="translate(573.2 703.75) rotate(25.4)">A</text><text class="cls-3" transform="translate(602.29 717.08) rotate(19.9)">R</text><text class="cls-3" transform="translate(629.96 726.76) rotate(14.45)">A</text><text class="cls-3" transform="translate(660.41 734.02) rotate(10.43)"> </text><text class="cls-3" transform="translate(673.94 736.52) rotate(6.63)">P</text><text class="cls-3" transform="translate(702.76 739.39) rotate(2.71)">I</text><text class="cls-3" transform="translate(718.27 740.12) rotate(-1.26)">N</text><text class="cls-3" transform="translate(748.68 739.05) rotate(-6.34)">T</text><text class="cls-3" transform="translate(775.8 735.79) rotate(-11.57)">A</text><text class="cls-3" transform="translate(807.08 728.93) rotate(-17.08)">R</text><text class="cls-3" transform="translate(834.53 719.98) rotate(-20.89)"> </text><text class="cls-3" transform="translate(847.44 715.07) rotate(-24.77)">Y</text><text class="cls-3" transform="matrix(0.88, -0.48, 0.48, 0.88, 874.13, 702.19)"> </text><text class="cls-3" transform="translate(886.21 695.6) rotate(-32.37)">C</text><text class="cls-3" transform="matrix(0.79, -0.61, 0.61, 0.79, 911.16, 679.32)">R</text><text class="cls-3" transform="translate(934.03 661.19) rotate(-42.69)">E</text><text class="cls-3" transform="matrix(0.67, -0.74, 0.74, 0.67, 954.15, 642.27)">A</text><text class="cls-3" transform="matrix(0.6, -0.8, 0.8, 0.6, 975.28, 618.23)">R</text></g><g id="Capa_2" data-name="Capa 2"><text class="cls-4" transform="matrix(1.02, -0.14, 0, 1, 7.74, 576.8)">Family box</text><text class="cls-5" transform="matrix(1.02, -0.14, 0, 1, 44.02, 613.08)">Family box</text><text class="cls-5" transform="matrix(1.02, -0.14, 0, 1, 43.71, 612.78)">Family box</text><text class="cls-5" transform="matrix(1.02, -0.14, 0, 1, 43.41, 612.47)">Family box</text><text class="cls-5" transform="matrix(1.02, -0.14, 0, 1, 43.11, 612.17)">Family box</text><text class="cls-5" transform="matrix(1.02, -0.14, 0, 1, 42.81, 611.87)">Family box</text><text class="cls-5" transform="matrix(1.02, -0.14, 0, 1, 42.5, 611.57)">Family box</text><text class="cls-5" transform="matrix(1.02, -0.14, 0, 1, 42.2, 611.26)">Family box</text><text class="cls-5" transform="matrix(1.02, -0.14, 0, 1, 41.9, 610.96)">Family box</text><text class="cls-5" transform="matrix(1.02, -0.14, 0, 1, 41.6, 610.66)">Family box</text><text class="cls-5" transform="matrix(1.02, -0.14, 0, 1, 41.3, 610.36)">Family box</text><text class="cls-5" transform="matrix(1.02, -0.14, 0, 1, 40.99, 610.05)">Family box</text><text class="cls-5" transform="matrix(1.02, -0.14, 0, 1, 40.69, 609.75)">Family box</text><text class="cls-5" transform="matrix(1.02, -0.14, 0, 1, 40.39, 609.45)">Family box</text><text class="cls-5" transform="matrix(1.02, -0.14, 0, 1, 40.09, 609.15)">Family box</text><text class="cls-5" transform="matrix(1.02, -0.14, 0, 1, 39.78, 608.85)">Family box</text><text class="cls-5" transform="matrix(1.02, -0.14, 0, 1, 39.48, 608.54)">Family box</text><text class="cls-5" transform="matrix(1.02, -0.14, 0, 1, 39.18, 608.24)">Family box</text><text class="cls-5" transform="matrix(1.02, -0.14, 0, 1, 38.88, 607.94)">Family box</text><text class="cls-5" transform="matrix(1.02, -0.14, 0, 1, 38.57, 607.64)">Family box</text><text class="cls-5" transform="matrix(1.02, -0.14, 0, 1, 38.27, 607.33)">Family box</text><text class="cls-5" transform="matrix(1.02, -0.14, 0, 1, 37.97, 607.03)">Family box</text><text class="cls-5" transform="matrix(1.02, -0.14, 0, 1, 37.67, 606.73)">Family box</text><text class="cls-5" transform="matrix(1.02, -0.14, 0, 1, 37.37, 606.43)">Family box</text><text class="cls-5" transform="matrix(1.02, -0.14, 0, 1, 37.06, 606.12)">Family box</text><text class="cls-5" transform="matrix(1.02, -0.14, 0, 1, 36.76, 605.82)">Family box</text><text class="cls-5" transform="matrix(1.02, -0.14, 0, 1, 36.46, 605.52)">Family box</text><text class="cls-5" transform="matrix(1.02, -0.14, 0, 1, 36.16, 605.22)">Family box</text><text class="cls-5" transform="matrix(1.02, -0.14, 0, 1, 35.85, 604.92)">Family box</text><text class="cls-5" transform="matrix(1.02, -0.14, 0, 1, 35.55, 604.61)">Family box</text><text class="cls-5" transform="matrix(1.02, -0.14, 0, 1, 35.25, 604.31)">Family box</text><text class="cls-5" transform="matrix(1.02, -0.14, 0, 1, 34.95, 604.01)">Family box</text><text class="cls-5" transform="matrix(1.02, -0.14, 0, 1, 34.64, 603.71)">Family box</text><text class="cls-5" transform="matrix(1.02, -0.14, 0, 1, 34.34, 603.4)">Family box</text><text class="cls-5" transform="matrix(1.02, -0.14, 0, 1, 34.04, 603.1)">Family box</text><text class="cls-5" transform="matrix(1.02, -0.14, 0, 1, 33.74, 602.8)">Family box</text><text class="cls-5" transform="matrix(1.02, -0.14, 0, 1, 33.43, 602.5)">Family box</text><text class="cls-5" transform="matrix(1.02, -0.14, 0, 1, 33.13, 602.19)">Family box</text><text class="cls-5" transform="matrix(1.02, -0.14, 0, 1, 32.83, 601.89)">Family box</text><text class="cls-5" transform="matrix(1.02, -0.14, 0, 1, 32.53, 601.59)">Family box</text><text class="cls-5" transform="matrix(1.02, -0.14, 0, 1, 32.23, 601.29)">Family box</text><text class="cls-5" transform="matrix(1.02, -0.14, 0, 1, 31.92, 600.98)">Family box</text><text class="cls-5" transform="matrix(1.02, -0.14, 0, 1, 31.62, 600.68)">Family box</text><text class="cls-5" transform="matrix(1.02, -0.14, 0, 1, 31.32, 600.38)">Family box</text><text class="cls-5" transform="matrix(1.02, -0.14, 0, 1, 31.02, 600.08)">Family box</text><text class="cls-5" transform="matrix(1.02, -0.14, 0, 1, 30.71, 599.78)">Family box</text><text class="cls-5" transform="matrix(1.02, -0.14, 0, 1, 30.41, 599.47)">Family box</text><text class="cls-5" transform="matrix(1.02, -0.14, 0, 1, 30.11, 599.17)">Family box</text><text class="cls-5" transform="matrix(1.02, -0.14, 0, 1, 29.81, 598.87)">Family box</text><text class="cls-5" transform="matrix(1.02, -0.14, 0, 1, 29.5, 598.57)">Family box</text><text class="cls-5" transform="matrix(1.02, -0.14, 0, 1, 29.2, 598.26)">Family box</text><text class="cls-5" transform="matrix(1.02, -0.14, 0, 1, 28.9, 597.96)">Family box</text><text class="cls-5" transform="matrix(1.02, -0.14, 0, 1, 28.6, 597.66)">Family box</text><text class="cls-5" transform="matrix(1.02, -0.14, 0, 1, 28.3, 597.36)">Family box</text><text class="cls-5" transform="matrix(1.02, -0.14, 0, 1, 27.99, 597.05)">Family box</text><text class="cls-5" transform="matrix(1.02, -0.14, 0, 1, 27.69, 596.75)">Family box</text><text class="cls-5" transform="matrix(1.02, -0.14, 0, 1, 27.39, 596.45)">Family box</text><text class="cls-5" transform="matrix(1.02, -0.14, 0, 1, 27.09, 596.15)">Family box</text><text class="cls-5" transform="matrix(1.02, -0.14, 0, 1, 26.78, 595.85)">Family box</text><text class="cls-5" transform="matrix(1.02, -0.14, 0, 1, 26.48, 595.54)">Family box</text><text class="cls-5" transform="matrix(1.02, -0.14, 0, 1, 26.18, 595.24)">Family box</text><text class="cls-5" transform="matrix(1.02, -0.14, 0, 1, 25.88, 594.94)">Family box</text><text class="cls-5" transform="matrix(1.02, -0.14, 0, 1, 25.57, 594.64)">Family box</text><text class="cls-5" transform="matrix(1.02, -0.14, 0, 1, 25.27, 594.33)">Family box</text><text class="cls-5" transform="matrix(1.02, -0.14, 0, 1, 24.97, 594.03)">Family box</text><text class="cls-5" transform="matrix(1.02, -0.14, 0, 1, 24.67, 593.73)">Family box</text><text class="cls-5" transform="matrix(1.02, -0.14, 0, 1, 24.36, 593.43)">Family box</text><text class="cls-5" transform="matrix(1.02, -0.14, 0, 1, 24.06, 593.12)">Family box</text><text class="cls-5" transform="matrix(1.02, -0.14, 0, 1, 23.76, 592.82)">Family box</text><text class="cls-5" transform="matrix(1.02, -0.14, 0, 1, 23.46, 592.52)">Family box</text><text class="cls-5" transform="matrix(1.02, -0.14, 0, 1, 23.16, 592.22)">Family box</text><text class="cls-5" transform="matrix(1.02, -0.14, 0, 1, 22.85, 591.91)">Family box</text><text class="cls-5" transform="matrix(1.02, -0.14, 0, 1, 22.55, 591.61)">Family box</text><text class="cls-5" transform="matrix(1.02, -0.14, 0, 1, 22.25, 591.31)">Family box</text><text class="cls-5" transform="matrix(1.02, -0.14, 0, 1, 21.95, 591.01)">Family box</text><text class="cls-5" transform="matrix(1.02, -0.14, 0, 1, 21.64, 590.71)">Family box</text><text class="cls-5" transform="matrix(1.02, -0.14, 0, 1, 21.34, 590.4)">Family box</text><text class="cls-5" transform="matrix(1.02, -0.14, 0, 1, 21.04, 590.1)">Family box</text><text class="cls-5" transform="matrix(1.02, -0.14, 0, 1, 20.74, 589.8)">Family box</text><text class="cls-5" transform="matrix(1.02, -0.14, 0, 1, 20.43, 589.5)">Family box</text><text class="cls-5" transform="matrix(1.02, -0.14, 0, 1, 20.13, 589.19)">Family box</text><text class="cls-5" transform="matrix(1.02, -0.14, 0, 1, 19.83, 588.89)">Family box</text><text class="cls-5" transform="matrix(1.02, -0.14, 0, 1, 19.53, 588.59)">Family box</text><text class="cls-5" transform="matrix(1.02, -0.14, 0, 1, 19.23, 588.29)">Family box</text><text class="cls-5" transform="matrix(1.02, -0.14, 0, 1, 18.92, 587.98)">Family box</text><text class="cls-5" transform="matrix(1.02, -0.14, 0, 1, 18.62, 587.68)">Family box</text><text class="cls-5" transform="matrix(1.02, -0.14, 0, 1, 18.32, 587.38)">Family box</text><text class="cls-5" transform="matrix(1.02, -0.14, 0, 1, 18.02, 587.08)">Family box</text><text class="cls-5" transform="matrix(1.02, -0.14, 0, 1, 17.71, 586.78)">Family box</text><text class="cls-5" transform="matrix(1.02, -0.14, 0, 1, 17.41, 586.47)">Family box</text><text class="cls-5" transform="matrix(1.02, -0.14, 0, 1, 17.11, 586.17)">Family box</text><text class="cls-5" transform="matrix(1.02, -0.14, 0, 1, 16.81, 585.87)">Family box</text><text class="cls-5" transform="matrix(1.02, -0.14, 0, 1, 16.5, 585.57)">Family box</text><text class="cls-5" transform="matrix(1.02, -0.14, 0, 1, 16.2, 585.26)">Family box</text><text class="cls-5" transform="matrix(1.02, -0.14, 0, 1, 15.9, 584.96)">Family box</text><text class="cls-5" transform="matrix(1.02, -0.14, 0, 1, 15.6, 584.66)">Family box</text><text class="cls-5" transform="matrix(1.02, -0.14, 0, 1, 15.29, 584.36)">Family box</text><text class="cls-5" transform="matrix(1.02, -0.14, 0, 1, 14.99, 584.05)">Family box</text><text class="cls-5" transform="matrix(1.02, -0.14, 0, 1, 14.69, 583.75)">Family box</text><text class="cls-5" transform="matrix(1.02, -0.14, 0, 1, 14.39, 583.45)">Family box</text><text class="cls-5" transform="matrix(1.02, -0.14, 0, 1, 14.09, 583.15)">Family box</text><text class="cls-5" transform="matrix(1.02, -0.14, 0, 1, 13.78, 582.84)">Family box</text><text class="cls-5" transform="matrix(1.02, -0.14, 0, 1, 13.48, 582.54)">Family box</text><text class="cls-5" transform="matrix(1.02, -0.14, 0, 1, 13.18, 582.24)">Family box</text><text class="cls-5" transform="matrix(1.02, -0.14, 0, 1, 12.88, 581.94)">Family box</text><text class="cls-5" transform="matrix(1.02, -0.14, 0, 1, 12.57, 581.64)">Family box</text><text class="cls-5" transform="matrix(1.02, -0.14, 0, 1, 12.27, 581.33)">Family box</text><text class="cls-5" transform="matrix(1.02, -0.14, 0, 1, 11.97, 581.03)">Family box</text><text class="cls-5" transform="matrix(1.02, -0.14, 0, 1, 11.67, 580.73)">Family box</text><text class="cls-5" transform="matrix(1.02, -0.14, 0, 1, 11.36, 580.43)">Family box</text><text class="cls-5" transform="matrix(1.02, -0.14, 0, 1, 11.06, 580.12)">Family box</text><text class="cls-5" transform="matrix(1.02, -0.14, 0, 1, 10.76, 579.82)">Family box</text><text class="cls-5" transform="matrix(1.02, -0.14, 0, 1, 10.46, 579.52)">Family box</text><text class="cls-5" transform="matrix(1.02, -0.14, 0, 1, 10.16, 579.22)">Family box</text><text class="cls-5" transform="matrix(1.02, -0.14, 0, 1, 9.85, 578.91)">Family box</text><text class="cls-5" transform="matrix(1.02, -0.14, 0, 1, 9.55, 578.61)">Family box</text><text class="cls-5" transform="matrix(1.02, -0.14, 0, 1, 9.25, 578.31)">Family box</text><text class="cls-5" transform="matrix(1.02, -0.14, 0, 1, 8.95, 578.01)">Family box</text><text class="cls-5" transform="matrix(1.02, -0.14, 0, 1, 8.64, 577.71)">Family box</text><text class="cls-5" transform="matrix(1.02, -0.14, 0, 1, 8.34, 577.4)">Family box</text><text class="cls-5" transform="matrix(1.02, -0.14, 0, 1, 8.04, 577.1)">Family box</text><text class="cls-5" transform="matrix(1.02, -0.14, 0, 1, 7.74, 576.8)">Family box</text><text class="cls-6" transform="matrix(1.02, -0.14, 0, 1, 11.52, 580.58)">Family box</text><text class="cls-6" transform="matrix(1.02, -0.14, 0, 1, 11.36, 580.43)">Family box</text><text class="cls-6" transform="matrix(1.02, -0.14, 0, 1, 11.21, 580.27)">Family box</text><text class="cls-6" transform="matrix(1.02, -0.14, 0, 1, 11.06, 580.12)">Family box</text><text class="cls-6" transform="matrix(1.02, -0.14, 0, 1, 10.91, 579.97)">Family box</text><text class="cls-6" transform="matrix(1.02, -0.14, 0, 1, 10.76, 579.82)">Family box</text><text class="cls-6" transform="matrix(1.02, -0.14, 0, 1, 10.61, 579.67)">Family box</text><text class="cls-6" transform="matrix(1.02, -0.14, 0, 1, 10.46, 579.52)">Family box</text><text class="cls-6" transform="matrix(1.02, -0.14, 0, 1, 10.31, 579.37)">Family box</text><text class="cls-6" transform="matrix(1.02, -0.14, 0, 1, 10.16, 579.22)">Family box</text><text class="cls-6" transform="matrix(1.02, -0.14, 0, 1, 10, 579.07)">Family box</text><text class="cls-6" transform="matrix(1.02, -0.14, 0, 1, 9.85, 578.91)">Family box</text><text class="cls-6" transform="matrix(1.02, -0.14, 0, 1, 9.7, 578.76)">Family box</text><text class="cls-6" transform="matrix(1.02, -0.14, 0, 1, 9.55, 578.61)">Family box</text><text class="cls-6" transform="matrix(1.02, -0.14, 0, 1, 9.4, 578.46)">Family box</text><text class="cls-6" transform="matrix(1.02, -0.14, 0, 1, 9.25, 578.31)">Family box</text><text class="cls-6" transform="matrix(1.02, -0.14, 0, 1, 9.1, 578.16)">Family box</text><text class="cls-6" transform="matrix(1.02, -0.14, 0, 1, 8.95, 578.01)">Family box</text><text class="cls-6" transform="matrix(1.02, -0.14, 0, 1, 8.79, 577.86)">Family box</text><text class="cls-6" transform="matrix(1.02, -0.14, 0, 1, 8.64, 577.71)">Family box</text><text class="cls-6" transform="matrix(1.02, -0.14, 0, 1, 8.49, 577.55)">Family box</text><text class="cls-6" transform="matrix(1.02, -0.14, 0, 1, 8.34, 577.4)">Family box</text><text class="cls-6" transform="matrix(1.02, -0.14, 0, 1, 8.19, 577.25)">Family box</text><text class="cls-6" transform="matrix(1.02, -0.14, 0, 1, 8.04, 577.1)">Family box</text><text class="cls-6" transform="matrix(1.02, -0.14, 0, 1, 7.89, 576.95)">Family box</text><text class="cls-6" transform="matrix(1.02, -0.14, 0, 1, 7.74, 576.8)">Family box</text><text class="cls-6" transform="matrix(1.02, -0.14, 0, 1, 7.74, 576.8)">Family box</text></g></svg>